<mxfile host="Electron" modified="2023-07-11T17:53:58.368Z" agent="Mozilla/5.0 (Windows NT 10.0; Win64; x64) AppleWebKit/537.36 (KHTML, like Gecko) draw.io/21.1.2 Chrome/106.0.5249.199 Electron/21.4.3 Safari/537.36" etag="424nDEKpWfTaSKP2kmpX" version="21.1.2" type="device">
  <diagram name="Strona-1" id="rdHBChEshjE4ldknorM4">
    <mxGraphModel dx="1036" dy="622" grid="1" gridSize="10" guides="1" tooltips="1" connect="1" arrows="1" fold="1" page="1" pageScale="1" pageWidth="827" pageHeight="583" math="0" shadow="0">
      <root>
        <mxCell id="0" />
        <mxCell id="1" parent="0" />
        <mxCell id="KR3OJATMIkxMM49omg2t-2" style="edgeStyle=orthogonalEdgeStyle;rounded=0;orthogonalLoop=1;jettySize=auto;html=1;exitX=1;exitY=0.5;exitDx=0;exitDy=0;entryX=0.5;entryY=1;entryDx=0;entryDy=0;" parent="1" source="EWnCfLXkYOQD1rXzz7vN-2" target="SRsmJIpoekN9EsY-bFoR-1" edge="1">
          <mxGeometry relative="1" as="geometry" />
        </mxCell>
        <mxCell id="EWnCfLXkYOQD1rXzz7vN-2" value="Day of week" style="whiteSpace=wrap;html=1;rounded=0;" parent="1" vertex="1">
          <mxGeometry x="245" y="300" width="130" height="60" as="geometry" />
        </mxCell>
        <mxCell id="SRsmJIpoekN9EsY-bFoR-18" style="edgeStyle=orthogonalEdgeStyle;rounded=0;orthogonalLoop=1;jettySize=auto;html=1;exitX=1;exitY=0.5;exitDx=0;exitDy=0;entryX=0;entryY=0.5;entryDx=0;entryDy=0;" parent="1" source="EWnCfLXkYOQD1rXzz7vN-4" target="EWnCfLXkYOQD1rXzz7vN-8" edge="1">
          <mxGeometry relative="1" as="geometry" />
        </mxCell>
        <mxCell id="EWnCfLXkYOQD1rXzz7vN-4" value="Weather" style="rounded=0;whiteSpace=wrap;html=1;" parent="1" vertex="1">
          <mxGeometry x="170" y="10" width="120" height="60" as="geometry" />
        </mxCell>
        <mxCell id="KR3OJATMIkxMM49omg2t-1" style="edgeStyle=orthogonalEdgeStyle;rounded=0;orthogonalLoop=1;jettySize=auto;html=1;exitX=1;exitY=0.5;exitDx=0;exitDy=0;entryX=0.25;entryY=1;entryDx=0;entryDy=0;" parent="1" source="EWnCfLXkYOQD1rXzz7vN-6" target="SRsmJIpoekN9EsY-bFoR-1" edge="1">
          <mxGeometry relative="1" as="geometry" />
        </mxCell>
        <mxCell id="EWnCfLXkYOQD1rXzz7vN-6" value="Hour" style="rounded=0;whiteSpace=wrap;html=1;" parent="1" vertex="1">
          <mxGeometry x="250" y="210" width="120" height="60" as="geometry" />
        </mxCell>
        <mxCell id="SRsmJIpoekN9EsY-bFoR-15" style="edgeStyle=orthogonalEdgeStyle;rounded=0;orthogonalLoop=1;jettySize=auto;html=1;exitX=1;exitY=0.5;exitDx=0;exitDy=0;entryX=0;entryY=0.5;entryDx=0;entryDy=0;" parent="1" source="EWnCfLXkYOQD1rXzz7vN-8" target="SRsmJIpoekN9EsY-bFoR-10" edge="1">
          <mxGeometry relative="1" as="geometry">
            <mxPoint x="445" y="120" as="targetPoint" />
          </mxGeometry>
        </mxCell>
        <mxCell id="EWnCfLXkYOQD1rXzz7vN-8" value="Generation" style="rounded=0;whiteSpace=wrap;html=1;" parent="1" vertex="1">
          <mxGeometry x="390" y="60" width="120" height="60" as="geometry" />
        </mxCell>
        <mxCell id="SRsmJIpoekN9EsY-bFoR-14" style="edgeStyle=orthogonalEdgeStyle;rounded=0;orthogonalLoop=1;jettySize=auto;html=1;exitX=1;exitY=0.5;exitDx=0;exitDy=0;entryX=0;entryY=0.75;entryDx=0;entryDy=0;" parent="1" source="SRsmJIpoekN9EsY-bFoR-1" target="SRsmJIpoekN9EsY-bFoR-10" edge="1">
          <mxGeometry relative="1" as="geometry">
            <mxPoint x="445" y="135" as="targetPoint" />
          </mxGeometry>
        </mxCell>
        <mxCell id="SRsmJIpoekN9EsY-bFoR-1" value="Demand" style="rounded=0;whiteSpace=wrap;html=1;" parent="1" vertex="1">
          <mxGeometry x="390" y="135" width="120" height="60" as="geometry" />
        </mxCell>
        <mxCell id="SRsmJIpoekN9EsY-bFoR-17" style="edgeStyle=orthogonalEdgeStyle;rounded=0;orthogonalLoop=1;jettySize=auto;html=1;exitX=1;exitY=0.5;exitDx=0;exitDy=0;entryX=0;entryY=0.75;entryDx=0;entryDy=0;" parent="1" source="SRsmJIpoekN9EsY-bFoR-2" target="SRsmJIpoekN9EsY-bFoR-1" edge="1">
          <mxGeometry relative="1" as="geometry" />
        </mxCell>
        <mxCell id="SRsmJIpoekN9EsY-bFoR-2" value="Historical demand" style="rounded=0;whiteSpace=wrap;html=1;" parent="1" vertex="1">
          <mxGeometry y="150" width="120" height="60" as="geometry" />
        </mxCell>
        <mxCell id="SRsmJIpoekN9EsY-bFoR-10" value="Predicted prices" style="rounded=0;whiteSpace=wrap;html=1;" parent="1" vertex="1">
          <mxGeometry x="670" y="90" width="120" height="60" as="geometry" />
        </mxCell>
        <mxCell id="SRsmJIpoekN9EsY-bFoR-20" style="edgeStyle=orthogonalEdgeStyle;rounded=0;orthogonalLoop=1;jettySize=auto;html=1;exitX=0.5;exitY=0;exitDx=0;exitDy=0;entryX=0.5;entryY=1;entryDx=0;entryDy=0;" parent="1" source="SRsmJIpoekN9EsY-bFoR-19" target="SRsmJIpoekN9EsY-bFoR-10" edge="1">
          <mxGeometry relative="1" as="geometry" />
        </mxCell>
        <mxCell id="SRsmJIpoekN9EsY-bFoR-19" value="Historical prices" style="rounded=0;whiteSpace=wrap;html=1;" parent="1" vertex="1">
          <mxGeometry x="670" y="292" width="120" height="60" as="geometry" />
        </mxCell>
        <mxCell id="KR3OJATMIkxMM49omg2t-4" style="edgeStyle=orthogonalEdgeStyle;rounded=0;orthogonalLoop=1;jettySize=auto;html=1;exitX=1;exitY=0.5;exitDx=0;exitDy=0;entryX=0;entryY=0.25;entryDx=0;entryDy=0;" parent="1" source="KR3OJATMIkxMM49omg2t-3" target="SRsmJIpoekN9EsY-bFoR-1" edge="1">
          <mxGeometry relative="1" as="geometry" />
        </mxCell>
        <mxCell id="KR3OJATMIkxMM49omg2t-3" value="Temperature" style="rounded=0;whiteSpace=wrap;html=1;" parent="1" vertex="1">
          <mxGeometry y="75" width="120" height="60" as="geometry" />
        </mxCell>
      </root>
    </mxGraphModel>
  </diagram>
</mxfile>
